<?xml version="1.0" standalone="no"?>
<!DOCTYPE svg PUBLIC "-//W3C//DTD SVG 20010904//EN"
 "http://www.w3.org/TR/2001/REC-SVG-20010904/DTD/svg10.dtd">
<svg version="1.0" xmlns="http://www.w3.org/2000/svg"
 width="620.000000pt" height="600.000000pt" viewBox="0 0 620.000000 600.000000"
 preserveAspectRatio="xMidYMid meet">

<g transform="translate(0.000000,600.000000) scale(0.100000,-0.100000)"
fill="#000000" stroke="none">
<path d="M1438 5861 c-3 -9 -332 -379 -426 -480 -60 -64 -59 -60 -17 -191 55
-173 107 -370 140 -535 58 -286 69 -394 69 -655 0 -211 -3 -250 -27 -385 -93
-517 -107 -624 -107 -794 0 -333 99 -579 313 -777 137 -127 287 -209 582 -318
195 -73 232 -87 313 -123 29 -13 55 -23 58 -23 10 0 261 -128 346 -176 104
-60 293 -184 355 -233 l46 -38 109 78 c149 107 267 179 444 271 172 89 225
112 494 213 295 110 407 162 523 239 192 128 342 329 406 543 l30 102 -40 91
c-21 50 -39 102 -39 116 0 22 4 24 48 24 l48 0 -3 63 c-8 157 -26 281 -93 657
-52 295 -60 456 -35 710 31 322 117 708 229 1029 l15 45 -67 75 c-37 42 -110
123 -162 181 -52 58 -124 139 -160 179 -36 40 -75 84 -87 97 l-22 24 -1640 0
c-921 0 -1641 -4 -1643 -9z m1670 -232 c2 -14 -4 -31 -12 -38 -12 -10 -13 -18
-4 -37 14 -29 24 -30 40 -4 16 25 45 26 53 1 4 -15 17 -21 48 -23 41 -3 42 -4
51 -49 l9 -47 51 -6 c28 -3 68 -6 89 -6 20 0 37 -4 37 -10 0 -5 9 -10 19 -10
32 0 51 -11 51 -30 0 -26 15 -33 30 -15 20 24 57 18 90 -15 36 -35 33 -34 71
-15 37 20 125 11 154 -16 11 -9 32 -21 48 -24 15 -4 27 -12 27 -19 0 -6 5 -76
10 -156 16 -239 100 -1617 100 -1639 0 -19 6 -21 70 -21 39 0 70 -4 70 -8 0
-15 -72 -102 -84 -102 -6 0 -30 9 -53 19 -28 13 -54 18 -81 14 -33 -4 -41 -2
-46 13 -11 30 -73 64 -117 64 -51 0 -73 12 -88 48 -11 27 -18 30 -82 39 -38 5
-72 7 -74 4 -8 -7 -6 -65 3 -77 4 -6 28 -21 55 -32 38 -17 47 -26 47 -46 0
-61 -27 -72 -70 -31 -23 22 -31 24 -54 15 -40 -15 -63 -12 -84 10 -16 17 -22
18 -56 8 -33 -10 -40 -10 -51 5 -7 9 -22 17 -34 17 -18 0 -21 -6 -21 -38 0
-39 -21 -67 -65 -89 -28 -15 -95 -25 -95 -16 0 4 -3 18 -6 31 -5 19 -2 22 20
22 33 0 33 13 1 28 -16 8 -28 23 -32 43 -6 30 -6 30 -57 24 -56 -8 -88 -31
-137 -102 -34 -48 -37 -73 -10 -73 50 0 71 -39 32 -59 -10 -6 -47 -38 -82 -71
-35 -34 -99 -82 -141 -108 -60 -36 -80 -54 -91 -82 -12 -31 -21 -38 -83 -58
-59 -19 -72 -28 -81 -52 -8 -22 -18 -30 -36 -30 -13 0 -41 -13 -62 -30 -42
-33 -46 -35 -62 -19 -9 9 -20 6 -43 -11 -17 -12 -48 -24 -69 -27 -33 -4 -41
-2 -50 16 -18 33 -38 25 -67 -29 -15 -27 -30 -50 -33 -50 -3 1 -24 16 -45 35
l-39 35 64 59 c74 70 103 76 156 35 19 -15 38 -22 43 -18 4 5 30 36 57 69 44
52 64 67 162 115 97 48 111 57 112 80 0 14 10 56 22 95 20 62 26 70 55 79 37
10 42 26 8 26 -52 0 -86 12 -86 31 0 27 -9 24 -46 -18 -29 -34 -33 -36 -34
-16 0 28 -25 53 -62 60 -22 4 -30 13 -35 34 -3 16 -8 29 -12 29 -3 0 -26 -14
-51 -30 -51 -34 -109 -40 -134 -14 -21 20 -21 20 16 66 35 45 41 78 39 237 -1
86 0 96 25 128 32 42 25 53 -15 22 -25 -20 -30 -32 -30 -67 -1 -41 -3 -44 -45
-63 -46 -20 -76 -17 -76 8 0 9 -12 42 -27 75 -21 47 -24 61 -13 68 21 13 8
124 -18 160 -12 16 -22 35 -22 43 0 29 79 135 127 170 27 20 50 42 50 49 0 7
3 73 7 146 8 129 7 132 -13 132 -29 0 -51 39 -60 104 -5 38 -4 62 5 78 18 32
18 32 -21 51 -43 21 -65 61 -44 81 32 30 157 67 224 67 37 0 70 -2 73 -6 3 -3
6 -22 7 -43 0 -20 4 -42 8 -48 3 -6 -7 -43 -24 -83 -81 -194 -79 -444 6 -636
104 -237 349 -431 595 -473 42 -7 45 -10 57 -52 14 -48 26 -60 53 -53 25 7 32
28 20 59 -6 14 -10 27 -10 28 0 2 39 6 88 9 114 8 187 29 297 82 152 75 281
197 355 336 31 58 32 60 53 45 37 -26 79 -48 84 -43 2 3 -9 37 -26 75 -38 87
-39 90 -22 182 26 145 -1 347 -65 472 -22 44 -25 59 -19 104 8 67 4 75 -38 62
-31 -9 -34 -7 -107 64 -91 89 -163 138 -265 179 -105 42 -193 59 -305 59 -158
0 -310 -43 -431 -121 -34 -22 -62 -39 -63 -37 -24 53 -60 73 -106 56 -30 -10
-35 -9 -52 13 -37 46 -58 84 -58 106 0 12 -7 29 -16 38 -14 14 -14 19 -1 53
l15 37 98 3 99 3 40 76 c48 95 66 113 108 113 18 0 38 5 44 11 9 9 20 9 44 0
35 -12 49 -7 31 11 -15 15 -16 58 -2 58 6 0 22 -7 35 -16 33 -22 77 -15 92 15
26 53 96 66 101 20z m2 -523 c0 -62 -1 -64 -37 -89 -21 -14 -54 -33 -73 -40
-50 -21 -202 -39 -290 -35 -68 3 -75 5 -78 24 -9 65 279 196 446 203 l32 1 0
-64z m214 38 c118 -31 247 -101 344 -189 87 -79 87 -78 -33 -104 l-104 -22
-28 25 c-41 39 -179 103 -250 117 -35 7 -63 16 -63 20 0 3 -11 17 -24 30 -18
18 -25 38 -29 81 -2 32 -2 60 2 64 8 8 114 -4 185 -22z m-722 -98 c14 -31 5
-53 -27 -68 -21 -9 -28 -8 -45 7 -39 35 -20 85 32 85 20 0 32 -7 40 -24z m730
-126 c29 -11 69 -30 88 -42 l35 -22 -50 -8 c-53 -8 -118 -3 -172 14 -30 9 -33
13 -33 50 l0 41 40 -7 c22 -3 63 -15 92 -26z m-734 -94 l32 -94 -39 -82 c-37
-75 -51 -123 -66 -222 l-6 -38 -89 0 -90 0 0 29 c0 94 56 275 112 366 39 62
97 135 107 135 4 0 22 -42 39 -94z m168 -149 c45 -89 47 -96 34 -126 -7 -18
-16 -28 -21 -24 -8 9 -79 216 -79 232 0 31 23 1 66 -82z m1108 -45 c19 -60 46
-200 46 -238 0 -2 -15 -4 -34 -4 -41 0 -43 6 -52 197 -8 157 1 168 40 45z
m-1134 -234 c0 -5 -43 -8 -96 -8 l-97 0 7 57 c7 63 45 180 71 220 l18 26 48
-144 c27 -79 49 -147 49 -151z m118 60 l20 -68 -28 0 c-22 0 -30 6 -39 31 -14
41 -14 62 1 94 15 33 21 25 46 -57z m-346 -94 c13 -4 18 -16 18 -43 0 -89 55
-224 129 -318 51 -65 144 -136 223 -172 l61 -28 32 -96 c18 -53 30 -99 28
-101 -10 -10 -132 27 -207 63 -233 110 -388 308 -440 563 -17 81 -20 121 -10
130 7 8 144 9 166 2z m224 -3 c17 -1 23 -12 34 -58 7 -32 16 -62 20 -68 11
-14 140 -389 135 -393 -2 -2 -32 11 -67 29 -88 46 -203 164 -246 252 -33 66
-69 206 -59 230 4 11 81 14 183 8z m141 -4 c6 -4 14 -33 18 -65 3 -31 8 -75
10 -97 4 -32 3 -36 -6 -22 -16 27 -68 185 -62 190 6 6 25 3 40 -6z m1034 -47
c-6 -93 -15 -100 -35 -27 -19 72 -16 90 17 85 20 -3 22 -8 18 -58z m-677 -84
c29 -12 34 -19 39 -61 13 -89 12 -92 -40 -109 -26 -9 -58 -16 -72 -16 -26 0
-26 1 -25 78 1 42 2 85 3 94 1 14 10 19 54 27 4 0 23 -5 41 -13z m-124 -101
c0 -97 1 -96 -86 -70 -70 21 -81 30 -64 49 18 22 130 106 141 106 5 0 9 -38 9
-85z m520 -28 c0 -20 -106 -144 -153 -178 -84 -61 -203 -107 -292 -111 l-50
-3 0 99 1 99 68 19 c37 10 81 25 97 33 17 9 39 13 54 9 15 -4 53 2 93 15 100
31 182 39 182 18z m124 -2 c32 -8 67 -20 77 -26 20 -10 19 -12 -12 -67 -132
-236 -372 -389 -634 -404 l-50 -3 0 90 0 89 80 12 c173 24 320 119 421 272 19
28 41 52 47 52 7 0 39 -7 71 -15z m-721 -69 c15 -3 38 -8 52 -11 25 -5 25 -6
25 -110 l0 -105 -42 6 c-24 4 -46 9 -49 13 -4 3 -23 53 -42 111 -19 58 -38
113 -42 122 -6 15 -3 15 32 -2 22 -10 51 -21 66 -24z m77 -335 c0 -50 -4 -93
-10 -96 -5 -3 -10 -5 -10 -3 0 2 -14 43 -30 92 -17 49 -30 91 -30 93 0 1 18 3
40 3 l40 0 0 -89z m1531 -393 l20 -28 -41 0 c-35 0 -41 3 -38 19 2 11 -8 31
-21 45 -21 22 -22 28 -10 42 12 15 16 13 42 -17 16 -19 37 -46 48 -61z m-280
-18 c77 -83 95 -98 110 -90 27 15 29 13 29 -30 0 -28 -4 -40 -14 -40 -8 0 -18
5 -21 10 -3 6 -21 10 -39 10 -28 0 -41 10 -97 74 l-64 75 -52 0 c-58 1 -60 5
-39 56 14 32 19 35 55 35 37 0 45 -6 132 -100z m181 53 c12 -11 18 -30 18 -58
0 -22 7 -50 15 -61 32 -42 12 -104 -30 -96 l-26 5 7 88 7 89 -33 0 -33 0 23
25 c28 30 28 30 52 8z m-32 -78 c0 -17 -8 -29 -25 -37 -22 -10 -29 -8 -50 12
-32 30 -18 50 36 50 35 0 39 -3 39 -25z m174 -67 c-8 -39 -12 -43 -39 -43 -25
0 -30 5 -36 33 -4 19 -12 39 -18 45 -19 19 -12 26 32 29 59 4 72 -10 61 -64z
m53 -32 l22 -34 -31 -6 c-47 -9 -88 -7 -88 5 0 5 8 9 18 7 26 -4 42 10 42 38
0 33 11 30 37 -10z m-86 -72 c45 -35 48 -40 54 -96 6 -48 4 -63 -9 -76 -15
-15 -16 -13 -16 30 0 31 -5 48 -14 51 -8 3 -18 22 -22 42 -4 22 -16 42 -30 52
-22 14 -32 33 -18 33 4 0 28 -16 55 -36z m-63 -4 c17 -11 32 -26 32 -33 0 -7
9 -31 21 -52 15 -30 19 -52 15 -87 -5 -45 -4 -47 40 -83 37 -30 44 -42 44 -71
0 -35 -1 -35 -32 -29 -18 4 -40 8 -49 11 -9 3 -23 29 -34 64 -13 44 -23 60
-38 62 -17 2 -24 18 -39 78 -15 61 -24 80 -50 101 -28 23 -30 29 -19 43 18 22
69 20 109 -4z m259 -93 c66 -104 70 -112 50 -116 -33 -5 -116 88 -109 124 3
17 -2 34 -15 48 -46 53 -47 57 -22 57 19 0 38 -22 96 -113z m-107 67 c23 -27
31 -43 27 -62 -4 -21 5 -37 39 -76 25 -27 42 -51 40 -54 -3 -2 -29 13 -58 34
-29 21 -54 38 -55 39 -1 1 -5 28 -9 60 -5 42 -13 65 -28 77 -17 14 -18 17 -5
18 10 0 31 -16 49 -36z m36 -171 c24 -16 44 -30 44 -33 0 -7 -55 -40 -67 -40
-5 0 -26 14 -46 31 l-38 32 28 18 c15 10 30 19 32 19 2 0 23 -12 47 -27z m134
-53 c-43 -24 -109 -28 -90 -6 13 16 37 23 90 24 l35 1 -35 -19z m78 -37 c-3
-25 -8 -28 -43 -31 -22 -2 -43 -9 -47 -15 -5 -9 -15 -8 -41 1 -18 7 -48 12
-65 12 -22 0 -32 5 -32 15 0 11 13 15 53 15 28 1 66 7 82 15 17 7 45 14 63 14
31 1 33 -1 30 -26z m16 -59 c14 -36 8 -42 -31 -34 -20 5 -41 8 -47 7 -23 -4
-9 28 14 34 43 11 58 10 64 -7z m-154 -41 c17 -26 30 -54 30 -62 0 -8 10 -25
22 -38 12 -13 22 -33 23 -45 1 -13 5 -31 10 -40 6 -15 1 -18 -32 -18 -35 0
-44 6 -87 56 -34 38 -45 59 -38 66 11 11 5 77 -9 93 -18 19 -9 35 21 35 25 0
35 -8 60 -47z m49 5 c13 -34 1 -44 -20 -17 -23 29 -24 39 -4 39 9 0 19 -10 24
-22z m43 -100 c-5 -5 -15 -1 -25 9 -15 17 -14 21 6 53 l22 35 3 -44 c2 -24 -1
-48 -6 -53z m-2984 50 c3 -26 2 -26 -60 -30 -35 -2 -71 -8 -80 -12 -26 -12
-33 17 -12 49 16 24 21 26 83 23 63 -3 66 -4 69 -30z m3054 -23 c-4 -58 -12
-70 -33 -53 -12 10 -15 26 -11 61 4 42 7 48 26 45 19 -3 21 -8 18 -53z m43
-15 c21 -41 19 -50 -11 -50 -20 0 -25 4 -20 16 3 9 6 27 6 40 0 32 6 30 25 -6z
m-3295 -10 c0 -16 -46 -41 -64 -34 -19 7 -21 30 -3 37 22 9 67 7 67 -3z m-112
-26 c32 -22 27 -34 -10 -27 -41 7 -42 8 -35 28 8 19 17 19 45 -1z m-155 -41
c13 -12 -68 -52 -106 -53 -46 0 -41 15 7 24 19 4 37 13 40 21 5 15 47 21 59 8z
m166 -12 c20 -13 0 -21 -74 -28 -72 -7 -82 1 -32 22 36 16 85 19 106 6z"/>
<path d="M875 2019 c-55 -51 -126 -117 -157 -146 l-58 -54 25 -27 25 -27 52
50 c29 28 57 57 64 65 11 13 15 12 32 -4 11 -10 28 -32 36 -50 14 -30 14 -39
-4 -112 -10 -43 -21 -86 -24 -94 -5 -14 50 -89 58 -79 6 8 46 179 46 199 0 23
-2 23 38 9 68 -23 152 39 152 113 0 40 -25 77 -122 181 l-63 69 -100 -93z
m158 -63 c65 -75 70 -108 21 -134 -28 -15 -66 7 -123 69 l-42 47 43 36 c24 19
46 36 49 36 3 0 26 -24 52 -54z"/>
<path d="M5215 2079 l-16 -30 78 -92 c43 -51 110 -129 150 -174 l73 -83 17 35
c17 35 17 35 -13 68 -59 63 -58 59 -22 132 l33 67 68 -5 c68 -6 68 -6 87 25
10 18 17 35 15 38 -3 4 -44 10 -92 14 -49 4 -144 14 -213 22 -159 18 -147 19
-165 -17z m233 -65 c4 -3 -26 -64 -40 -81 -7 -9 -23 1 -58 40 -26 29 -46 55
-45 58 3 5 135 -10 143 -17z"/>
<path d="M5123 1962 c-32 -27 -32 -29 -42 -150 -5 -68 -12 -126 -16 -130 -3
-3 -17 7 -29 23 -13 17 -39 47 -57 67 l-34 37 -27 -22 -28 -22 142 -163 141
-163 25 25 25 25 -39 46 c-57 69 -57 69 -50 107 l6 34 108 -27 c59 -16 114
-28 122 -28 18 0 75 48 66 56 -3 3 -69 20 -146 38 -78 17 -141 34 -142 38 -1
17 14 204 18 220 7 24 -6 21 -43 -11z"/>
<path d="M1157 1662 c-52 -81 -104 -162 -115 -181 l-20 -34 126 -80 c70 -43
132 -81 138 -84 6 -2 19 7 28 22 l16 25 -102 66 c-57 37 -104 68 -106 69 -1 1
11 25 29 53 l31 50 96 -60 95 -60 18 23 c10 13 19 26 18 29 0 3 -42 31 -94 64
-52 32 -95 60 -95 62 0 9 53 84 59 84 3 0 49 -27 101 -60 52 -33 98 -60 102
-60 8 0 28 34 28 48 0 5 -24 24 -52 42 -29 18 -88 55 -130 81 l-77 48 -94
-147z"/>
<path d="M4810 1702 c-54 -7 -88 -24 -125 -62 -46 -47 -52 -98 -16 -149 29
-40 56 -46 165 -34 107 11 124 8 132 -22 9 -35 -13 -65 -61 -86 -51 -23 -98
-17 -123 16 -17 21 -20 22 -45 9 -36 -19 -34 -36 8 -73 46 -40 75 -46 140 -32
125 28 190 134 133 218 -39 57 -60 60 -234 37 -47 -6 -53 -4 -64 15 -15 30 8
66 56 86 49 20 58 19 91 -9 26 -22 30 -23 55 -10 35 18 35 24 0 57 -31 30 -73
45 -112 39z"/>
<path d="M1535 1443 c-32 -87 -66 -177 -76 -201 l-18 -42 37 -16 c20 -8 71
-27 112 -41 67 -23 80 -24 120 -14 87 23 150 111 158 222 8 115 -23 151 -184
215 -48 18 -88 34 -89 34 -1 0 -28 -71 -60 -157z m224 15 c44 -27 53 -96 20
-168 -42 -94 -83 -113 -174 -81 -32 11 -60 22 -62 25 -4 3 36 118 86 248 l10
28 50 -20 c28 -11 59 -25 70 -32z"/>
<path d="M4413 1515 l-33 -14 0 -226 c0 -133 4 -225 9 -225 5 0 21 4 35 10 23
8 25 15 28 77 l3 68 70 27 70 27 45 -50 45 -50 38 13 c44 16 56 -3 -94 159
-206 223 -180 200 -216 184z m91 -150 l47 -54 -37 -16 c-61 -25 -64 -23 -64
55 0 39 2 70 4 70 2 0 25 -25 50 -55z"/>
<path d="M3987 1348 c-21 -7 -27 -15 -22 -27 4 -9 33 -86 65 -171 67 -180 80
-210 91 -210 4 0 62 21 127 46 l120 46 -10 29 c-5 16 -13 29 -17 29 -3 0 -42
-13 -84 -30 -43 -16 -84 -30 -92 -30 -8 0 -37 64 -73 162 -33 89 -64 163 -69
164 -4 1 -21 -2 -36 -8z"/>
<path d="M2112 1160 c-45 -104 -82 -193 -82 -199 0 -5 14 -14 31 -20 l31 -11
36 80 c19 44 41 80 48 80 7 0 42 -13 79 -30 37 -16 72 -30 79 -30 11 0 42 49
34 54 -2 1 -39 17 -83 36 -44 19 -82 35 -84 37 -6 4 18 74 31 90 9 11 54 -5
173 -62 27 -13 31 -13 43 2 27 37 15 48 -114 103 -70 30 -129 56 -133 58 -4 1
-43 -83 -89 -188z"/>
<path d="M3733 1240 c-21 -9 -22 -12 -23 -234 -1 -213 0 -226 18 -226 38 0 51
22 54 89 l3 64 72 27 73 28 45 -50 c44 -49 45 -50 80 -38 20 7 35 15 33 20 -9
25 -302 330 -316 329 -9 0 -27 -4 -39 -9z m147 -201 c0 -6 -83 -39 -97 -39 -2
0 -3 35 -3 78 l1 77 49 -54 c28 -30 50 -58 50 -62z"/>
<path d="M2395 1014 c-48 -108 -85 -197 -83 -198 1 -2 57 -27 122 -56 114 -50
120 -52 133 -34 7 10 12 25 11 32 -2 7 -41 30 -88 51 -47 21 -84 42 -83 47 1
5 15 38 31 74 34 72 77 169 98 216 13 30 12 31 -21 47 l-33 16 -87 -195z"/>
<path d="M2853 958 c-26 -24 -57 -51 -68 -61 -11 -11 -66 -60 -122 -110 -57
-50 -103 -92 -103 -94 0 -1 16 -10 36 -18 l36 -15 46 44 46 44 60 -30 c85 -42
83 -39 76 -108 -6 -61 -6 -61 28 -82 18 -11 34 -19 36 -17 4 5 23 222 32 365
6 93 5 101 -12 107 -11 4 -24 10 -31 13 -7 3 -33 -14 -60 -38z m30 -136 c-3
-40 -10 -72 -15 -72 -12 0 -88 39 -88 46 0 6 104 103 107 100 1 -1 -1 -34 -4
-74z"/>
<path d="M3146 896 c-118 -44 -169 -195 -109 -321 50 -106 219 -141 331 -68
l42 27 0 83 0 83 -94 0 -94 0 -4 -30 c-3 -17 -2 -32 0 -35 3 -3 32 -5 64 -5
58 0 58 0 58 -30 0 -38 -43 -62 -111 -62 -95 1 -139 48 -139 147 0 103 45 155
134 155 50 0 83 -18 101 -56 14 -31 17 -32 45 -22 17 5 30 16 30 22 0 23 -44
80 -77 99 -43 25 -128 31 -177 13z"/>
</g>
</svg>
